<mxfile host="app.diagrams.net" agent="Mozilla/5.0 (Windows NT 10.0; Win64; x64) AppleWebKit/537.36 (KHTML, like Gecko) Chrome/136.0.0.0 Safari/537.36" version="27.0.9">
  <diagram name="Page-1" id="r7LwVea45-ziTJ3iF5NH">
    <mxGraphModel dx="1942" dy="3618" grid="1" gridSize="10" guides="1" tooltips="1" connect="1" arrows="1" fold="1" page="1" pageScale="1" pageWidth="827" pageHeight="1169" math="0" shadow="0">
      <root>
        <mxCell id="0" />
        <mxCell id="1" parent="0" />
        <mxCell id="aeGjRWzs8yw3ERXhmYGt-78" style="edgeStyle=orthogonalEdgeStyle;rounded=0;orthogonalLoop=1;jettySize=auto;html=1;exitX=1;exitY=0.5;exitDx=0;exitDy=0;" edge="1" parent="1" source="aeGjRWzs8yw3ERXhmYGt-46" target="aeGjRWzs8yw3ERXhmYGt-24">
          <mxGeometry relative="1" as="geometry" />
        </mxCell>
        <mxCell id="aeGjRWzs8yw3ERXhmYGt-1" value="useForm&lt;br&gt;hook" style="rounded=1;whiteSpace=wrap;html=1;" vertex="1" parent="1">
          <mxGeometry x="440" y="120" width="120" height="60" as="geometry" />
        </mxCell>
        <mxCell id="aeGjRWzs8yw3ERXhmYGt-2" value="Actor" style="shape=umlActor;verticalLabelPosition=bottom;verticalAlign=top;html=1;outlineConnect=0;" vertex="1" parent="1">
          <mxGeometry x="120" y="100" width="30" height="60" as="geometry" />
        </mxCell>
        <mxCell id="aeGjRWzs8yw3ERXhmYGt-4" value="" style="endArrow=none;html=1;rounded=0;" edge="1" parent="1">
          <mxGeometry width="50" height="50" relative="1" as="geometry">
            <mxPoint x="500" y="720" as="sourcePoint" />
            <mxPoint x="500" y="210" as="targetPoint" />
          </mxGeometry>
        </mxCell>
        <mxCell id="aeGjRWzs8yw3ERXhmYGt-3" value="" style="endArrow=none;html=1;rounded=0;" edge="1" parent="1" source="aeGjRWzs8yw3ERXhmYGt-13">
          <mxGeometry width="50" height="50" relative="1" as="geometry">
            <mxPoint x="320" y="720" as="sourcePoint" />
            <mxPoint x="320" y="210" as="targetPoint" />
          </mxGeometry>
        </mxCell>
        <mxCell id="aeGjRWzs8yw3ERXhmYGt-5" value="" style="endArrow=none;html=1;rounded=0;" edge="1" parent="1">
          <mxGeometry width="50" height="50" relative="1" as="geometry">
            <mxPoint x="140" y="720" as="sourcePoint" />
            <mxPoint x="140" y="210" as="targetPoint" />
          </mxGeometry>
        </mxCell>
        <mxCell id="aeGjRWzs8yw3ERXhmYGt-6" value="" style="endArrow=classic;html=1;rounded=0;" edge="1" parent="1">
          <mxGeometry width="50" height="50" relative="1" as="geometry">
            <mxPoint x="140" y="280" as="sourcePoint" />
            <mxPoint x="320" y="280" as="targetPoint" />
          </mxGeometry>
        </mxCell>
        <mxCell id="aeGjRWzs8yw3ERXhmYGt-7" value="Submit" style="edgeLabel;html=1;align=center;verticalAlign=middle;resizable=0;points=[];" vertex="1" connectable="0" parent="aeGjRWzs8yw3ERXhmYGt-6">
          <mxGeometry x="-0.0667" y="-1" relative="1" as="geometry">
            <mxPoint as="offset" />
          </mxGeometry>
        </mxCell>
        <mxCell id="aeGjRWzs8yw3ERXhmYGt-8" value="LoginForm" style="rounded=1;whiteSpace=wrap;html=1;" vertex="1" parent="1">
          <mxGeometry x="260" y="120" width="120" height="60" as="geometry" />
        </mxCell>
        <mxCell id="aeGjRWzs8yw3ERXhmYGt-9" value="validate" style="rounded=0;whiteSpace=wrap;html=1;horizontal=0;" vertex="1" parent="1">
          <mxGeometry x="490" y="280" width="20" height="90" as="geometry" />
        </mxCell>
        <mxCell id="aeGjRWzs8yw3ERXhmYGt-10" value="" style="endArrow=classic;html=1;rounded=0;" edge="1" parent="1">
          <mxGeometry width="50" height="50" relative="1" as="geometry">
            <mxPoint x="320" y="280" as="sourcePoint" />
            <mxPoint x="500" y="280" as="targetPoint" />
          </mxGeometry>
        </mxCell>
        <mxCell id="aeGjRWzs8yw3ERXhmYGt-11" value="handleSubmit" style="edgeLabel;html=1;align=center;verticalAlign=middle;resizable=0;points=[];" vertex="1" connectable="0" parent="aeGjRWzs8yw3ERXhmYGt-10">
          <mxGeometry x="-0.0667" y="-1" relative="1" as="geometry">
            <mxPoint as="offset" />
          </mxGeometry>
        </mxCell>
        <mxCell id="aeGjRWzs8yw3ERXhmYGt-12" value="" style="endArrow=none;html=1;rounded=0;" edge="1" parent="1" target="aeGjRWzs8yw3ERXhmYGt-13">
          <mxGeometry width="50" height="50" relative="1" as="geometry">
            <mxPoint x="320" y="720" as="sourcePoint" />
            <mxPoint x="320" y="210" as="targetPoint" />
          </mxGeometry>
        </mxCell>
        <mxCell id="aeGjRWzs8yw3ERXhmYGt-13" value="onSubmit" style="rounded=0;whiteSpace=wrap;html=1;horizontal=0;" vertex="1" parent="1">
          <mxGeometry x="310" y="370" width="20" height="90" as="geometry" />
        </mxCell>
        <mxCell id="aeGjRWzs8yw3ERXhmYGt-14" value="" style="endArrow=classic;html=1;rounded=0;exitX=0.5;exitY=1;exitDx=0;exitDy=0;" edge="1" parent="1" source="aeGjRWzs8yw3ERXhmYGt-13">
          <mxGeometry width="50" height="50" relative="1" as="geometry">
            <mxPoint x="270" y="280" as="sourcePoint" />
            <mxPoint x="680" y="460" as="targetPoint" />
          </mxGeometry>
        </mxCell>
        <mxCell id="aeGjRWzs8yw3ERXhmYGt-16" value="useAuth&lt;br&gt;hook" style="rounded=1;whiteSpace=wrap;html=1;" vertex="1" parent="1">
          <mxGeometry x="620" y="120" width="120" height="60" as="geometry" />
        </mxCell>
        <mxCell id="aeGjRWzs8yw3ERXhmYGt-17" value="" style="endArrow=none;html=1;rounded=0;" edge="1" parent="1" source="aeGjRWzs8yw3ERXhmYGt-81">
          <mxGeometry width="50" height="50" relative="1" as="geometry">
            <mxPoint x="679.41" y="720" as="sourcePoint" />
            <mxPoint x="679.41" y="210" as="targetPoint" />
          </mxGeometry>
        </mxCell>
        <mxCell id="aeGjRWzs8yw3ERXhmYGt-19" value="" style="endArrow=classic;html=1;rounded=0;" edge="1" parent="1">
          <mxGeometry width="50" height="50" relative="1" as="geometry">
            <mxPoint x="680" y="550" as="sourcePoint" />
            <mxPoint x="860" y="550" as="targetPoint" />
          </mxGeometry>
        </mxCell>
        <mxCell id="aeGjRWzs8yw3ERXhmYGt-94" value="dispatch" style="edgeLabel;html=1;align=center;verticalAlign=middle;resizable=0;points=[];" vertex="1" connectable="0" parent="aeGjRWzs8yw3ERXhmYGt-19">
          <mxGeometry x="-0.0333" y="-1" relative="1" as="geometry">
            <mxPoint as="offset" />
          </mxGeometry>
        </mxCell>
        <mxCell id="aeGjRWzs8yw3ERXhmYGt-24" value="thunk&lt;br&gt;loginUseCase instance" style="rounded=1;whiteSpace=wrap;html=1;" vertex="1" parent="1">
          <mxGeometry x="980" y="120" width="120" height="60" as="geometry" />
        </mxCell>
        <mxCell id="aeGjRWzs8yw3ERXhmYGt-25" value="" style="endArrow=none;html=1;rounded=0;" edge="1" parent="1">
          <mxGeometry width="50" height="50" relative="1" as="geometry">
            <mxPoint x="1040" y="1020" as="sourcePoint" />
            <mxPoint x="1039.4099999999999" y="210" as="targetPoint" />
          </mxGeometry>
        </mxCell>
        <mxCell id="aeGjRWzs8yw3ERXhmYGt-26" value="AuthApiRepository" style="rounded=1;whiteSpace=wrap;html=1;" vertex="1" parent="1">
          <mxGeometry x="1160" y="120" width="120" height="60" as="geometry" />
        </mxCell>
        <mxCell id="aeGjRWzs8yw3ERXhmYGt-27" value="" style="endArrow=none;html=1;rounded=0;" edge="1" parent="1" source="aeGjRWzs8yw3ERXhmYGt-89">
          <mxGeometry width="50" height="50" relative="1" as="geometry">
            <mxPoint x="1219" y="1020" as="sourcePoint" />
            <mxPoint x="1219.4099999999999" y="210" as="targetPoint" />
          </mxGeometry>
        </mxCell>
        <mxCell id="aeGjRWzs8yw3ERXhmYGt-28" value="" style="endArrow=classic;html=1;rounded=0;" edge="1" parent="1">
          <mxGeometry width="50" height="50" relative="1" as="geometry">
            <mxPoint x="1040" y="740" as="sourcePoint" />
            <mxPoint x="1220" y="740" as="targetPoint" />
          </mxGeometry>
        </mxCell>
        <mxCell id="aeGjRWzs8yw3ERXhmYGt-29" value="login" style="edgeLabel;html=1;align=center;verticalAlign=middle;resizable=0;points=[];" vertex="1" connectable="0" parent="aeGjRWzs8yw3ERXhmYGt-28">
          <mxGeometry x="-0.0667" y="-1" relative="1" as="geometry">
            <mxPoint as="offset" />
          </mxGeometry>
        </mxCell>
        <mxCell id="aeGjRWzs8yw3ERXhmYGt-30" value="" style="endArrow=classic;html=1;rounded=0;exitX=0.5;exitY=1;exitDx=0;exitDy=0;" edge="1" parent="1" source="aeGjRWzs8yw3ERXhmYGt-9">
          <mxGeometry width="50" height="50" relative="1" as="geometry">
            <mxPoint x="500" y="370" as="sourcePoint" />
            <mxPoint x="320" y="370" as="targetPoint" />
          </mxGeometry>
        </mxCell>
        <mxCell id="aeGjRWzs8yw3ERXhmYGt-32" style="edgeStyle=orthogonalEdgeStyle;rounded=0;orthogonalLoop=1;jettySize=auto;html=1;exitX=0;exitY=0.5;exitDx=0;exitDy=0;entryX=1;entryY=0.5;entryDx=0;entryDy=0;" edge="1" parent="1" source="aeGjRWzs8yw3ERXhmYGt-34" target="aeGjRWzs8yw3ERXhmYGt-38">
          <mxGeometry relative="1" as="geometry" />
        </mxCell>
        <mxCell id="aeGjRWzs8yw3ERXhmYGt-33" value="authReducer" style="edgeLabel;html=1;align=center;verticalAlign=middle;resizable=0;points=[];" vertex="1" connectable="0" parent="aeGjRWzs8yw3ERXhmYGt-32">
          <mxGeometry x="-0.0142" y="1" relative="1" as="geometry">
            <mxPoint as="offset" />
          </mxGeometry>
        </mxCell>
        <mxCell id="aeGjRWzs8yw3ERXhmYGt-34" value="AuthSlice" style="rounded=1;whiteSpace=wrap;html=1;" vertex="1" parent="1">
          <mxGeometry x="1070" y="-610" width="120" height="60" as="geometry" />
        </mxCell>
        <mxCell id="aeGjRWzs8yw3ERXhmYGt-35" style="edgeStyle=orthogonalEdgeStyle;rounded=0;orthogonalLoop=1;jettySize=auto;html=1;exitX=0.5;exitY=1;exitDx=0;exitDy=0;entryX=0.5;entryY=0;entryDx=0;entryDy=0;" edge="1" parent="1" source="aeGjRWzs8yw3ERXhmYGt-36" target="aeGjRWzs8yw3ERXhmYGt-38">
          <mxGeometry relative="1" as="geometry" />
        </mxCell>
        <mxCell id="aeGjRWzs8yw3ERXhmYGt-36" value="authPersistConfig" style="rounded=1;whiteSpace=wrap;html=1;" vertex="1" parent="1">
          <mxGeometry x="795" y="-710" width="120" height="60" as="geometry" />
        </mxCell>
        <mxCell id="aeGjRWzs8yw3ERXhmYGt-37" value="&lt;div style=&quot;line-height: 70%;&quot;&gt;Store&lt;br&gt;&lt;font style=&quot;font-size: 13px; font-weight: normal; line-height: 70%;&quot;&gt;configureStore&lt;/font&gt;&lt;/div&gt;" style="rounded=1;whiteSpace=wrap;html=1;verticalAlign=top;fontStyle=1;fontSize=31;" vertex="1" parent="1">
          <mxGeometry x="540" y="-470" width="220" height="270" as="geometry" />
        </mxCell>
        <mxCell id="aeGjRWzs8yw3ERXhmYGt-38" value="persistReducer(&lt;br&gt;authPersistConfig,&lt;br&gt;authReducer)" style="rounded=1;whiteSpace=wrap;html=1;" vertex="1" parent="1">
          <mxGeometry x="780" y="-610" width="150" height="60" as="geometry" />
        </mxCell>
        <mxCell id="aeGjRWzs8yw3ERXhmYGt-39" style="edgeStyle=orthogonalEdgeStyle;rounded=0;orthogonalLoop=1;jettySize=auto;html=1;exitX=0.5;exitY=1;exitDx=0;exitDy=0;entryX=0.5;entryY=0;entryDx=0;entryDy=0;" edge="1" parent="1" source="aeGjRWzs8yw3ERXhmYGt-40" target="aeGjRWzs8yw3ERXhmYGt-37">
          <mxGeometry relative="1" as="geometry" />
        </mxCell>
        <mxCell id="aeGjRWzs8yw3ERXhmYGt-40" value="Reducer" style="rounded=1;whiteSpace=wrap;html=1;verticalAlign=top;fontStyle=1;fontSize=18;" vertex="1" parent="1">
          <mxGeometry x="570" y="-650" width="160" height="120" as="geometry" />
        </mxCell>
        <mxCell id="aeGjRWzs8yw3ERXhmYGt-41" style="edgeStyle=orthogonalEdgeStyle;rounded=0;orthogonalLoop=1;jettySize=auto;html=1;exitX=1;exitY=0.5;exitDx=0;exitDy=0;entryX=0;entryY=0.5;entryDx=0;entryDy=0;" edge="1" parent="1" source="aeGjRWzs8yw3ERXhmYGt-42" target="aeGjRWzs8yw3ERXhmYGt-38">
          <mxGeometry relative="1" as="geometry" />
        </mxCell>
        <mxCell id="aeGjRWzs8yw3ERXhmYGt-42" value="&lt;b&gt;&lt;font style=&quot;font-size: 14px;&quot;&gt;auth&lt;/font&gt;&lt;/b&gt;" style="rounded=1;whiteSpace=wrap;html=1;" vertex="1" parent="1">
          <mxGeometry x="590" y="-615" width="120" height="70" as="geometry" />
        </mxCell>
        <mxCell id="aeGjRWzs8yw3ERXhmYGt-43" value="Middleware" style="rounded=1;whiteSpace=wrap;html=1;verticalAlign=top;fontStyle=1;fontSize=18;" vertex="1" parent="1">
          <mxGeometry x="560" y="-400" width="180" height="170" as="geometry" />
        </mxCell>
        <mxCell id="aeGjRWzs8yw3ERXhmYGt-45" style="edgeStyle=orthogonalEdgeStyle;rounded=0;orthogonalLoop=1;jettySize=auto;html=1;exitX=0;exitY=0.5;exitDx=0;exitDy=0;" edge="1" parent="1" source="aeGjRWzs8yw3ERXhmYGt-46" target="aeGjRWzs8yw3ERXhmYGt-65">
          <mxGeometry relative="1" as="geometry">
            <mxPoint x="840" y="-400" as="targetPoint" />
          </mxGeometry>
        </mxCell>
        <mxCell id="aeGjRWzs8yw3ERXhmYGt-46" value="new LoginUseCase(&lt;br&gt;AuthApiRepository)" style="rounded=1;whiteSpace=wrap;html=1;" vertex="1" parent="1">
          <mxGeometry x="830" y="-334" width="150" height="60" as="geometry" />
        </mxCell>
        <mxCell id="aeGjRWzs8yw3ERXhmYGt-47" style="edgeStyle=orthogonalEdgeStyle;rounded=0;orthogonalLoop=1;jettySize=auto;html=1;exitX=0;exitY=0.5;exitDx=0;exitDy=0;entryX=1;entryY=0.5;entryDx=0;entryDy=0;" edge="1" parent="1" source="aeGjRWzs8yw3ERXhmYGt-48" target="aeGjRWzs8yw3ERXhmYGt-34">
          <mxGeometry relative="1" as="geometry" />
        </mxCell>
        <mxCell id="aeGjRWzs8yw3ERXhmYGt-48" value="authActions" style="rounded=1;whiteSpace=wrap;html=1;" vertex="1" parent="1">
          <mxGeometry x="1290" y="-710" width="120" height="60" as="geometry" />
        </mxCell>
        <mxCell id="aeGjRWzs8yw3ERXhmYGt-49" value="&lt;div style=&quot;color: rgb(123, 136, 161); background-color: rgb(30, 33, 39); font-family: Consolas, &amp;quot;Courier New&amp;quot;, monospace; font-size: 14px; line-height: 19px; white-space-collapse: preserve;&quot;&gt;&lt;div&gt;&lt;span style=&quot;color: #81a1c1;&quot;&gt;const&lt;/span&gt; &lt;span style=&quot;color: #d8dee9;&quot;&gt;authSlice&lt;/span&gt; &lt;span style=&quot;color: #81a1c1;&quot;&gt;=&lt;/span&gt; &lt;span style=&quot;color: #88c0d0;&quot;&gt;createSlice&lt;/span&gt;(&lt;span style=&quot;color: #eceff4;&quot;&gt;{&lt;/span&gt;&lt;/div&gt;&lt;div&gt;&amp;nbsp; &lt;span style=&quot;color: #d8dee9;&quot;&gt;name&lt;/span&gt;&lt;span style=&quot;color: #eceff4;&quot;&gt;:&lt;/span&gt; &lt;span style=&quot;color: #eceff4;&quot;&gt;&#39;&lt;/span&gt;&lt;span style=&quot;color: #a3be8c;&quot;&gt;auth&lt;/span&gt;&lt;span style=&quot;color: #eceff4;&quot;&gt;&#39;&lt;/span&gt;&lt;span style=&quot;color: #eceff4;&quot;&gt;,&lt;/span&gt;&lt;/div&gt;&lt;div&gt;&amp;nbsp; &lt;span style=&quot;color: #d8dee9;&quot;&gt;initialState&lt;/span&gt;&lt;span style=&quot;color: #eceff4;&quot;&gt;:&lt;/span&gt; &lt;span style=&quot;color: #d8dee9;&quot;&gt;initialAuthState&lt;/span&gt;&lt;span style=&quot;color: #eceff4;&quot;&gt;,&lt;/span&gt;&lt;/div&gt;&lt;div&gt;&amp;nbsp; &lt;span style=&quot;color: #d8dee9;&quot;&gt;reducers&lt;/span&gt;&lt;span style=&quot;color: #eceff4;&quot;&gt;:&lt;/span&gt; &lt;span style=&quot;color: #eceff4;&quot;&gt;{},&lt;/span&gt;&lt;/div&gt;&lt;div&gt;&amp;nbsp; &lt;span style=&quot;color: #88c0d0;&quot;&gt;extraReducers&lt;/span&gt;&lt;span style=&quot;color: #eceff4;&quot;&gt;:&lt;/span&gt; &lt;span style=&quot;color: #d8dee9;&quot;&gt;builder&lt;/span&gt; &lt;span style=&quot;color: #81a1c1;&quot;&gt;=&amp;gt;&lt;/span&gt; &lt;span style=&quot;color: #eceff4;&quot;&gt;{&lt;/span&gt;&lt;/div&gt;&lt;div&gt;&amp;nbsp; &amp;nbsp; &lt;span style=&quot;color: #d8dee9;&quot;&gt;builder&lt;/span&gt;&lt;/div&gt;&lt;div&gt;&lt;span style=&quot;color: #eceff4;&quot;&gt;&amp;nbsp; &amp;nbsp; &amp;nbsp; &lt;/span&gt;&lt;span style=&quot;color: #4c566a;font-style: italic;&quot;&gt;//&lt;/span&gt;&lt;span style=&quot;color: #8597bc;font-style: italic;&quot;&gt; Login&lt;/span&gt;&lt;/div&gt;&lt;div&gt;&amp;nbsp; &amp;nbsp; &amp;nbsp; &lt;span style=&quot;color: #eceff4;&quot;&gt;.&lt;/span&gt;&lt;span style=&quot;color: #88c0d0;&quot;&gt;addCase&lt;/span&gt;(&lt;span style=&quot;color: #d8dee9;&quot;&gt;loginAction&lt;/span&gt;&lt;span style=&quot;color: #eceff4;&quot;&gt;.&lt;/span&gt;&lt;span style=&quot;color: #d8dee9;&quot;&gt;pending&lt;/span&gt;&lt;span style=&quot;color: #eceff4;&quot;&gt;,&lt;/span&gt; &lt;span style=&quot;color: #d8dee9;&quot;&gt;state&lt;/span&gt; &lt;span style=&quot;color: #81a1c1;&quot;&gt;=&amp;gt;&lt;/span&gt; &lt;span style=&quot;color: #eceff4;&quot;&gt;{&lt;/span&gt;&lt;/div&gt;&lt;div&gt;&amp;nbsp; &amp;nbsp; &amp;nbsp; &amp;nbsp; &lt;span style=&quot;color: #d8dee9;&quot;&gt;state&lt;/span&gt;&lt;span style=&quot;color: #eceff4;&quot;&gt;.&lt;/span&gt;&lt;span style=&quot;color: #d8dee9;&quot;&gt;loading&lt;/span&gt; &lt;span style=&quot;color: #81a1c1;&quot;&gt;=&lt;/span&gt; &lt;span style=&quot;color: #b48ead;&quot;&gt;true&lt;/span&gt;&lt;span style=&quot;color: #81a1c1;&quot;&gt;;&lt;/span&gt;&lt;/div&gt;&lt;div&gt;&amp;nbsp; &amp;nbsp; &amp;nbsp; &amp;nbsp; &lt;span style=&quot;color: #d8dee9;&quot;&gt;state&lt;/span&gt;&lt;span style=&quot;color: #eceff4;&quot;&gt;.&lt;/span&gt;&lt;span style=&quot;color: #d8dee9;&quot;&gt;error&lt;/span&gt; &lt;span style=&quot;color: #81a1c1;&quot;&gt;=&lt;/span&gt; &lt;span style=&quot;color: #7d7c9b;&quot;&gt;null&lt;/span&gt;&lt;span style=&quot;color: #81a1c1;&quot;&gt;;&lt;/span&gt;&lt;/div&gt;&lt;div&gt;&amp;nbsp; &amp;nbsp; &amp;nbsp; &lt;span style=&quot;color: #eceff4;&quot;&gt;}&lt;/span&gt;)&lt;/div&gt;&lt;div&gt;&amp;nbsp; &amp;nbsp; &amp;nbsp; &lt;span style=&quot;color: #eceff4;&quot;&gt;.&lt;/span&gt;&lt;span style=&quot;color: #88c0d0;&quot;&gt;addCase&lt;/span&gt;(&lt;span style=&quot;color: #d8dee9;&quot;&gt;loginAction&lt;/span&gt;&lt;span style=&quot;color: #eceff4;&quot;&gt;.&lt;/span&gt;&lt;span style=&quot;color: #d8dee9;&quot;&gt;fulfilled&lt;/span&gt;&lt;span style=&quot;color: #eceff4;&quot;&gt;,&lt;/span&gt; &lt;span style=&quot;color: #eceff4;&quot;&gt;(&lt;/span&gt;&lt;span style=&quot;color: #d8dee9;&quot;&gt;state&lt;/span&gt;&lt;span style=&quot;color: #eceff4;&quot;&gt;,&lt;/span&gt; &lt;span style=&quot;color: #d8dee9;&quot;&gt;action&lt;/span&gt;&lt;span style=&quot;color: #eceff4;&quot;&gt;)&lt;/span&gt; &lt;span style=&quot;color: #81a1c1;&quot;&gt;=&amp;gt;&lt;/span&gt; &lt;span style=&quot;color: #eceff4;&quot;&gt;{&lt;/span&gt;&lt;/div&gt;&lt;div&gt;&amp;nbsp; &amp;nbsp; &amp;nbsp; &amp;nbsp; &lt;span style=&quot;color: #d8dee9;&quot;&gt;state&lt;/span&gt;&lt;span style=&quot;color: #eceff4;&quot;&gt;.&lt;/span&gt;&lt;span style=&quot;color: #d8dee9;&quot;&gt;loading&lt;/span&gt; &lt;span style=&quot;color: #81a1c1;&quot;&gt;=&lt;/span&gt; &lt;span style=&quot;color: #b48ead;&quot;&gt;false&lt;/span&gt;&lt;span style=&quot;color: #81a1c1;&quot;&gt;;&lt;/span&gt;&lt;/div&gt;&lt;div&gt;&amp;nbsp; &amp;nbsp; &amp;nbsp; &amp;nbsp; &lt;span style=&quot;color: #d8dee9;&quot;&gt;state&lt;/span&gt;&lt;span style=&quot;color: #eceff4;&quot;&gt;.&lt;/span&gt;&lt;span style=&quot;color: #d8dee9;&quot;&gt;isAuthenticated&lt;/span&gt; &lt;span style=&quot;color: #81a1c1;&quot;&gt;=&lt;/span&gt; &lt;span style=&quot;color: #b48ead;&quot;&gt;true&lt;/span&gt;&lt;span style=&quot;color: #81a1c1;&quot;&gt;;&lt;/span&gt;&lt;/div&gt;&lt;div&gt;&amp;nbsp; &amp;nbsp; &amp;nbsp; &amp;nbsp; &lt;span style=&quot;color: #d8dee9;&quot;&gt;state&lt;/span&gt;&lt;span style=&quot;color: #eceff4;&quot;&gt;.&lt;/span&gt;&lt;span style=&quot;color: #d8dee9;&quot;&gt;user&lt;/span&gt; &lt;span style=&quot;color: #81a1c1;&quot;&gt;=&lt;/span&gt; &lt;span style=&quot;color: #d8dee9;&quot;&gt;action&lt;/span&gt;&lt;span style=&quot;color: #eceff4;&quot;&gt;.&lt;/span&gt;&lt;span style=&quot;color: #d8dee9;&quot;&gt;payload&lt;/span&gt;&lt;span style=&quot;color: #eceff4;&quot;&gt;.&lt;/span&gt;&lt;span style=&quot;color: #d8dee9;&quot;&gt;data&lt;/span&gt; &lt;span style=&quot;color: #81a1c1;&quot;&gt;??&lt;/span&gt; &lt;span style=&quot;color: #7d7c9b;&quot;&gt;null&lt;/span&gt;&lt;span style=&quot;color: #81a1c1;&quot;&gt;;&lt;/span&gt;&lt;/div&gt;&lt;div&gt;&amp;nbsp; &amp;nbsp; &amp;nbsp; &lt;span style=&quot;color: #eceff4;&quot;&gt;}&lt;/span&gt;)&lt;/div&gt;&lt;div&gt;&amp;nbsp; &amp;nbsp; &amp;nbsp; &lt;span style=&quot;color: #eceff4;&quot;&gt;.&lt;/span&gt;&lt;span style=&quot;color: #88c0d0;&quot;&gt;addCase&lt;/span&gt;(&lt;span style=&quot;color: #d8dee9;&quot;&gt;loginAction&lt;/span&gt;&lt;span style=&quot;color: #eceff4;&quot;&gt;.&lt;/span&gt;&lt;span style=&quot;color: #d8dee9;&quot;&gt;rejected&lt;/span&gt;&lt;span style=&quot;color: #eceff4;&quot;&gt;,&lt;/span&gt; &lt;span style=&quot;color: #eceff4;&quot;&gt;(&lt;/span&gt;&lt;span style=&quot;color: #d8dee9;&quot;&gt;state&lt;/span&gt;&lt;span style=&quot;color: #eceff4;&quot;&gt;,&lt;/span&gt; &lt;span style=&quot;color: #d8dee9;&quot;&gt;action&lt;/span&gt;&lt;span style=&quot;color: #eceff4;&quot;&gt;)&lt;/span&gt; &lt;span style=&quot;color: #81a1c1;&quot;&gt;=&amp;gt;&lt;/span&gt; &lt;span style=&quot;color: #eceff4;&quot;&gt;{&lt;/span&gt;&lt;/div&gt;&lt;div&gt;&amp;nbsp; &amp;nbsp; &amp;nbsp; &amp;nbsp; &lt;span style=&quot;color: #d8dee9;&quot;&gt;state&lt;/span&gt;&lt;span style=&quot;color: #eceff4;&quot;&gt;.&lt;/span&gt;&lt;span style=&quot;color: #d8dee9;&quot;&gt;loading&lt;/span&gt; &lt;span style=&quot;color: #81a1c1;&quot;&gt;=&lt;/span&gt; &lt;span style=&quot;color: #b48ead;&quot;&gt;false&lt;/span&gt;&lt;span style=&quot;color: #81a1c1;&quot;&gt;;&lt;/span&gt;&lt;/div&gt;&lt;div&gt;&amp;nbsp; &amp;nbsp; &amp;nbsp; &amp;nbsp; &lt;span style=&quot;color: #d8dee9;&quot;&gt;state&lt;/span&gt;&lt;span style=&quot;color: #eceff4;&quot;&gt;.&lt;/span&gt;&lt;span style=&quot;color: #d8dee9;&quot;&gt;error&lt;/span&gt; &lt;span style=&quot;color: #81a1c1;&quot;&gt;=&lt;/span&gt; &lt;span style=&quot;color: #d8dee9;&quot;&gt;action&lt;/span&gt;&lt;span style=&quot;color: #eceff4;&quot;&gt;.&lt;/span&gt;&lt;span style=&quot;color: #d8dee9;&quot;&gt;error&lt;/span&gt;&lt;span style=&quot;color: #eceff4;&quot;&gt;.&lt;/span&gt;&lt;span style=&quot;color: #d8dee9;&quot;&gt;message&lt;/span&gt; &lt;span style=&quot;color: #81a1c1;&quot;&gt;??&lt;/span&gt; &lt;span style=&quot;color: #7d7c9b;&quot;&gt;null&lt;/span&gt;&lt;span style=&quot;color: #81a1c1;&quot;&gt;;&lt;/span&gt;&lt;/div&gt;&lt;div&gt;&amp;nbsp; &amp;nbsp; &amp;nbsp; &lt;span style=&quot;color: #eceff4;&quot;&gt;}&lt;/span&gt;)&lt;/div&gt;&lt;/div&gt;" style="text;html=1;align=left;verticalAlign=middle;resizable=0;points=[];autosize=1;strokeColor=none;fillColor=none;" vertex="1" parent="1">
          <mxGeometry x="1070" y="-550" width="470" height="390" as="geometry" />
        </mxCell>
        <mxCell id="aeGjRWzs8yw3ERXhmYGt-50" value="&lt;div style=&quot;color: rgb(123, 136, 161); background-color: rgb(30, 33, 39); font-family: Consolas, &amp;quot;Courier New&amp;quot;, monospace; font-size: 14px; line-height: 19px; white-space-collapse: preserve;&quot;&gt;&lt;div&gt;&lt;span style=&quot;color: #81a1c1;&quot;&gt;export&lt;/span&gt; &lt;span style=&quot;color: #81a1c1;&quot;&gt;const&lt;/span&gt; &lt;span style=&quot;color: #d8dee9;&quot;&gt;loginAction&lt;/span&gt; &lt;span style=&quot;color: #81a1c1;&quot;&gt;=&lt;/span&gt; &lt;span style=&quot;color: #88c0d0;&quot;&gt;createAsyncThunk&lt;/span&gt;(&lt;/div&gt;&lt;div&gt;&amp;nbsp; &lt;span style=&quot;color: #eceff4;&quot;&gt;&#39;&lt;/span&gt;&lt;span style=&quot;color: #a3be8c;&quot;&gt;auth/login&lt;/span&gt;&lt;span style=&quot;color: #eceff4;&quot;&gt;&#39;&lt;/span&gt;&lt;span style=&quot;color: #eceff4;&quot;&gt;,&lt;/span&gt;&lt;/div&gt;&lt;div&gt;&amp;nbsp; &lt;span style=&quot;color: #81a1c1;&quot;&gt;async&lt;/span&gt; &lt;span style=&quot;color: #eceff4;&quot;&gt;(&lt;/span&gt;&lt;span style=&quot;color: #d8dee9;&quot;&gt;payload&lt;/span&gt;&lt;span style=&quot;color: #81a1c1;&quot;&gt;:&lt;/span&gt; &lt;span style=&quot;color: #8fbcbb;&quot;&gt;LoginPayload&lt;/span&gt;&lt;span style=&quot;color: #eceff4;&quot;&gt;,&lt;/span&gt; &lt;span style=&quot;color: #eceff4;&quot;&gt;{&lt;/span&gt; &lt;span style=&quot;color: #d8dee9;&quot;&gt;extra&lt;/span&gt; &lt;span style=&quot;color: #eceff4;&quot;&gt;})&lt;/span&gt; &lt;span style=&quot;color: #81a1c1;&quot;&gt;=&amp;gt;&lt;/span&gt; &lt;span style=&quot;color: #eceff4;&quot;&gt;{&lt;/span&gt;&lt;/div&gt;&lt;div&gt;&amp;nbsp; &amp;nbsp; &lt;span style=&quot;color: #81a1c1;&quot;&gt;const&lt;/span&gt; &lt;span style=&quot;color: #eceff4;&quot;&gt;{&lt;/span&gt; &lt;span style=&quot;color: #d8dee9;&quot;&gt;loginUseCase&lt;/span&gt; &lt;span style=&quot;color: #eceff4;&quot;&gt;}&lt;/span&gt; &lt;span style=&quot;color: #81a1c1;&quot;&gt;=&lt;/span&gt; &lt;span style=&quot;color: #d8dee9;&quot;&gt;extra&lt;/span&gt; &lt;span style=&quot;color: #81a1c1;&quot;&gt;as&lt;/span&gt; &lt;span style=&quot;color: #eceff4;&quot;&gt;{&lt;/span&gt; loginUseCase&lt;span style=&quot;color: #81a1c1;&quot;&gt;:&lt;/span&gt; &lt;span style=&quot;color: #8fbcbb;&quot;&gt;LoginUseCase&lt;/span&gt; &lt;span style=&quot;color: #eceff4;&quot;&gt;}&lt;/span&gt;&lt;span style=&quot;color: #81a1c1;&quot;&gt;;&lt;/span&gt;&lt;/div&gt;&lt;div&gt;&amp;nbsp; &amp;nbsp; &lt;span style=&quot;color: #81a1c1;&quot;&gt;return&lt;/span&gt; &lt;span style=&quot;color: #81a1c1;&quot;&gt;await&lt;/span&gt; &lt;span style=&quot;color: #d8dee9;&quot;&gt;loginUseCase&lt;/span&gt;&lt;span style=&quot;color: #eceff4;&quot;&gt;.&lt;/span&gt;&lt;span style=&quot;color: #88c0d0;&quot;&gt;execute&lt;/span&gt;(&lt;span style=&quot;color: #d8dee9;&quot;&gt;payload&lt;/span&gt;)&lt;span style=&quot;color: #81a1c1;&quot;&gt;;&lt;/span&gt;&lt;/div&gt;&lt;div&gt;&amp;nbsp; &lt;span style=&quot;color: #eceff4;&quot;&gt;}&lt;/span&gt;&lt;/div&gt;&lt;div&gt;)&lt;span style=&quot;color: #81a1c1;&quot;&gt;;&lt;/span&gt;&lt;/div&gt;&lt;/div&gt;" style="text;html=1;align=left;verticalAlign=middle;resizable=0;points=[];autosize=1;strokeColor=none;fillColor=none;" vertex="1" parent="1">
          <mxGeometry x="1290" y="-850" width="550" height="150" as="geometry" />
        </mxCell>
        <mxCell id="aeGjRWzs8yw3ERXhmYGt-51" value="&lt;div style=&quot;color: rgb(123, 136, 161); background-color: rgb(30, 33, 39); font-family: Consolas, &amp;quot;Courier New&amp;quot;, monospace; font-size: 14px; line-height: 19px; white-space-collapse: preserve;&quot;&gt;&lt;div&gt;&lt;span style=&quot;color: #4c566a;font-style: italic;&quot;&gt;//&lt;/span&gt;&lt;span style=&quot;color: #8597bc;font-style: italic;&quot;&gt; Just persist the necessary data&lt;/span&gt;&lt;/div&gt;&lt;div&gt;&lt;span style=&quot;color: #81a1c1;&quot;&gt;export&lt;/span&gt; &lt;span style=&quot;color: #81a1c1;&quot;&gt;const&lt;/span&gt; &lt;span style=&quot;color: #d8dee9;&quot;&gt;authPersistConfig&lt;/span&gt; &lt;span style=&quot;color: #81a1c1;&quot;&gt;=&lt;/span&gt; &lt;span style=&quot;color: #eceff4;&quot;&gt;{&lt;/span&gt;&lt;/div&gt;&lt;div&gt;&amp;nbsp; &lt;span style=&quot;color: #d8dee9;&quot;&gt;key&lt;/span&gt;&lt;span style=&quot;color: #eceff4;&quot;&gt;:&lt;/span&gt; &lt;span style=&quot;color: #eceff4;&quot;&gt;&#39;&lt;/span&gt;&lt;span style=&quot;color: #a3be8c;&quot;&gt;auth&lt;/span&gt;&lt;span style=&quot;color: #eceff4;&quot;&gt;&#39;&lt;/span&gt;&lt;span style=&quot;color: #eceff4;&quot;&gt;,&lt;/span&gt;&lt;/div&gt;&lt;div&gt;&amp;nbsp; &lt;span style=&quot;color: #d8dee9;&quot;&gt;storage&lt;/span&gt;&lt;span style=&quot;color: #eceff4;&quot;&gt;,&lt;/span&gt;&lt;/div&gt;&lt;div&gt;&amp;nbsp; &lt;span style=&quot;color: #d8dee9;&quot;&gt;whitelist&lt;/span&gt;&lt;span style=&quot;color: #eceff4;&quot;&gt;:&lt;/span&gt; [&lt;span style=&quot;color: #eceff4;&quot;&gt;&#39;&lt;/span&gt;&lt;span style=&quot;color: #a3be8c;&quot;&gt;user&lt;/span&gt;&lt;span style=&quot;color: #eceff4;&quot;&gt;&#39;&lt;/span&gt;&lt;span style=&quot;color: #eceff4;&quot;&gt;,&lt;/span&gt; &lt;span style=&quot;color: #eceff4;&quot;&gt;&#39;&lt;/span&gt;&lt;span style=&quot;color: #a3be8c;&quot;&gt;token&lt;/span&gt;&lt;span style=&quot;color: #eceff4;&quot;&gt;&#39;&lt;/span&gt;&lt;span style=&quot;color: #eceff4;&quot;&gt;,&lt;/span&gt; &lt;span style=&quot;color: #eceff4;&quot;&gt;&#39;&lt;/span&gt;&lt;span style=&quot;color: #a3be8c;&quot;&gt;isAuthenticated&lt;/span&gt;&lt;span style=&quot;color: #eceff4;&quot;&gt;&#39;&lt;/span&gt;]&lt;span style=&quot;color: #eceff4;&quot;&gt;,&lt;/span&gt;&lt;/div&gt;&lt;div&gt;&amp;nbsp; &lt;span style=&quot;color: #d8dee9;&quot;&gt;transforms&lt;/span&gt;&lt;span style=&quot;color: #eceff4;&quot;&gt;:&lt;/span&gt; [&lt;span style=&quot;color: #d8dee9;&quot;&gt;tokenTransform&lt;/span&gt;]&lt;span style=&quot;color: #eceff4;&quot;&gt;,&lt;/span&gt;&lt;/div&gt;&lt;div&gt;&lt;span style=&quot;color: #eceff4;&quot;&gt;}&lt;/span&gt;&lt;span style=&quot;color: #81a1c1;&quot;&gt;;&lt;/span&gt;&lt;/div&gt;&lt;/div&gt;" style="text;html=1;align=left;verticalAlign=middle;resizable=0;points=[];autosize=1;strokeColor=none;fillColor=none;" vertex="1" parent="1">
          <mxGeometry x="795" y="-850" width="410" height="150" as="geometry" />
        </mxCell>
        <mxCell id="aeGjRWzs8yw3ERXhmYGt-52" value="" style="rounded=0;whiteSpace=wrap;html=1;fillColor=none;strokeColor=#ae4132;strokeWidth=5;perimeterSpacing=0;" vertex="1" parent="1">
          <mxGeometry x="1130" y="-526" width="60" height="20" as="geometry" />
        </mxCell>
        <mxCell id="aeGjRWzs8yw3ERXhmYGt-53" value="" style="rounded=0;whiteSpace=wrap;html=1;fillColor=none;strokeColor=#ae4132;strokeWidth=5;perimeterSpacing=0;" vertex="1" parent="1">
          <mxGeometry x="1305" y="-822" width="50" height="20" as="geometry" />
        </mxCell>
        <mxCell id="aeGjRWzs8yw3ERXhmYGt-54" value="" style="rounded=0;whiteSpace=wrap;html=1;fillColor=none;strokeColor=#0e8088;strokeWidth=5;perimeterSpacing=0;" vertex="1" parent="1">
          <mxGeometry x="1390" y="-842" width="90" height="20" as="geometry" />
        </mxCell>
        <mxCell id="aeGjRWzs8yw3ERXhmYGt-55" value="" style="rounded=0;whiteSpace=wrap;html=1;fillColor=none;strokeColor=#0e8088;strokeWidth=5;perimeterSpacing=0;" vertex="1" parent="1">
          <mxGeometry x="1186" y="-410" width="90" height="20" as="geometry" />
        </mxCell>
        <mxCell id="aeGjRWzs8yw3ERXhmYGt-56" value="" style="rounded=0;whiteSpace=wrap;html=1;fillColor=none;strokeColor=#0e8088;strokeWidth=5;perimeterSpacing=0;" vertex="1" parent="1">
          <mxGeometry x="1186" y="-334" width="90" height="20" as="geometry" />
        </mxCell>
        <mxCell id="aeGjRWzs8yw3ERXhmYGt-57" value="" style="rounded=0;whiteSpace=wrap;html=1;fillColor=none;strokeColor=#0e8088;strokeWidth=5;perimeterSpacing=0;" vertex="1" parent="1">
          <mxGeometry x="1186" y="-240" width="90" height="20" as="geometry" />
        </mxCell>
        <mxCell id="aeGjRWzs8yw3ERXhmYGt-58" value="" style="rounded=0;whiteSpace=wrap;html=1;fillColor=none;strokeColor=#56517e;strokeWidth=5;perimeterSpacing=0;" vertex="1" parent="1">
          <mxGeometry x="1497" y="-842" width="130" height="20" as="geometry" />
        </mxCell>
        <mxCell id="aeGjRWzs8yw3ERXhmYGt-61" value="" style="rounded=0;whiteSpace=wrap;html=1;fillColor=none;strokeColor=#ae4132;strokeWidth=5;perimeterSpacing=0;" vertex="1" parent="1">
          <mxGeometry x="849" y="-804" width="50" height="20" as="geometry" />
        </mxCell>
        <mxCell id="aeGjRWzs8yw3ERXhmYGt-62" style="edgeStyle=orthogonalEdgeStyle;rounded=0;orthogonalLoop=1;jettySize=auto;html=1;exitX=0.5;exitY=1;exitDx=0;exitDy=0;" edge="1" parent="1" source="aeGjRWzs8yw3ERXhmYGt-56" target="aeGjRWzs8yw3ERXhmYGt-56">
          <mxGeometry relative="1" as="geometry" />
        </mxCell>
        <mxCell id="aeGjRWzs8yw3ERXhmYGt-63" value="&lt;font&gt;&lt;span style=&quot;color: rgb(0, 0, 0); font-family: system-ui, -apple-system, &amp;quot;Segoe UI&amp;quot;, Roboto, Ubuntu, Cantarell, &amp;quot;Noto Sans&amp;quot;, sans-serif, BlinkMacSystemFont, &amp;quot;Segoe UI&amp;quot;, Helvetica, Arial, sans-serif, &amp;quot;Apple Color Emoji&amp;quot;, &amp;quot;Segoe UI Emoji&amp;quot;, &amp;quot;Segoe UI Symbol&amp;quot;;&quot;&gt;Redux Toolkit has a function called&amp;nbsp;&lt;/span&gt;&lt;a style=&quot;box-sizing: border-box; transition: color cubic-bezier(0.08, 0.52, 0.52, 1); text-decoration-line: none; text-decoration-style: solid; text-decoration-color: rgb(118, 74, 188); font-family: system-ui, -apple-system, &amp;quot;Segoe UI&amp;quot;, Roboto, Ubuntu, Cantarell, &amp;quot;Noto Sans&amp;quot;, sans-serif, BlinkMacSystemFont, &amp;quot;Segoe UI&amp;quot;, Helvetica, Arial, sans-serif, &amp;quot;Apple Color Emoji&amp;quot;, &amp;quot;Segoe UI Emoji&amp;quot;, &amp;quot;Segoe UI Symbol&amp;quot;; color: rgb(118, 74, 188);&quot; href=&quot;https://redux-toolkit.js.org/api/createSlice&quot; target=&quot;_blank&quot; rel=&quot;noopener noreferrer&quot;&gt;&lt;span style=&quot;box-sizing: border-box; font-weight: 700;&quot;&gt;&lt;code style=&quot;box-sizing: border-box; vertical-align: middle; background-color: rgb(235, 237, 240); border: 0.1rem solid rgba(0, 0, 0, 0.1); border-radius: 0.2rem; font-family: SFMono-Regular, Menlo, Monaco, Consolas, &amp;quot;Liberation Mono&amp;quot;, &amp;quot;Courier New&amp;quot;, monospace; padding: 1.7px 3.4px; color: inherit;&quot;&gt;createSlice&lt;/code&gt;&lt;/span&gt;&lt;/a&gt;&lt;span style=&quot;color: rgb(0, 0, 0); font-family: system-ui, -apple-system, &amp;quot;Segoe UI&amp;quot;, Roboto, Ubuntu, Cantarell, &amp;quot;Noto Sans&amp;quot;, sans-serif, BlinkMacSystemFont, &amp;quot;Segoe UI&amp;quot;, Helvetica, Arial, sans-serif, &amp;quot;Apple Color Emoji&amp;quot;, &amp;quot;Segoe UI Emoji&amp;quot;, &amp;quot;Segoe UI Symbol&amp;quot;;&quot;&gt;, which takes care of the work of generating action type strings, action creator functions, and action objects.&amp;nbsp;&lt;/span&gt;&lt;/font&gt;&lt;div&gt;&lt;font&gt;&lt;span style=&quot;color: rgb(0, 0, 0); font-family: system-ui, -apple-system, &amp;quot;Segoe UI&amp;quot;, Roboto, Ubuntu, Cantarell, &amp;quot;Noto Sans&amp;quot;, sans-serif, BlinkMacSystemFont, &amp;quot;Segoe UI&amp;quot;, Helvetica, Arial, sans-serif, &amp;quot;Apple Color Emoji&amp;quot;, &amp;quot;Segoe UI Emoji&amp;quot;, &amp;quot;Segoe UI Symbol&amp;quot;;&quot;&gt;&lt;br&gt;&lt;/span&gt;&lt;/font&gt;&lt;/div&gt;&lt;div&gt;&lt;font&gt;&lt;span style=&quot;color: rgb(0, 0, 0); font-family: system-ui, -apple-system, &amp;quot;Segoe UI&amp;quot;, Roboto, Ubuntu, Cantarell, &amp;quot;Noto Sans&amp;quot;, sans-serif, BlinkMacSystemFont, &amp;quot;Segoe UI&amp;quot;, Helvetica, Arial, sans-serif, &amp;quot;Apple Color Emoji&amp;quot;, &amp;quot;Segoe UI Emoji&amp;quot;, &amp;quot;Segoe UI Symbol&amp;quot;;&quot;&gt;All you have to do is define a name for this slice, write an object that has some reducer functions in it, and it generates the corresponding action code automatically. The string from the&amp;nbsp;&lt;/span&gt;&lt;code style=&quot;box-sizing: border-box; vertical-align: middle; background-color: rgb(218, 221, 225); border: 0.1rem solid rgba(0, 0, 0, 0.1); border-radius: 0.2rem; font-family: SFMono-Regular, Menlo, Monaco, Consolas, &amp;quot;Liberation Mono&amp;quot;, &amp;quot;Courier New&amp;quot;, monospace; padding: 1.7px 3.4px; color: rgb(0, 0, 0);&quot;&gt;name&lt;/code&gt;&lt;span style=&quot;color: rgb(0, 0, 0); font-family: system-ui, -apple-system, &amp;quot;Segoe UI&amp;quot;, Roboto, Ubuntu, Cantarell, &amp;quot;Noto Sans&amp;quot;, sans-serif, BlinkMacSystemFont, &amp;quot;Segoe UI&amp;quot;, Helvetica, Arial, sans-serif, &amp;quot;Apple Color Emoji&amp;quot;, &amp;quot;Segoe UI Emoji&amp;quot;, &amp;quot;Segoe UI Symbol&amp;quot;;&quot;&gt;&amp;nbsp;option is used as the first part of each action type, and the key name of each reducer function is used as the second part. So, the&amp;nbsp;&lt;/span&gt;&lt;code style=&quot;box-sizing: border-box; vertical-align: middle; background-color: rgb(218, 221, 225); border: 0.1rem solid rgba(0, 0, 0, 0.1); border-radius: 0.2rem; font-family: SFMono-Regular, Menlo, Monaco, Consolas, &amp;quot;Liberation Mono&amp;quot;, &amp;quot;Courier New&amp;quot;, monospace; padding: 1.7px 3.4px; color: rgb(0, 0, 0);&quot;&gt;&quot;counter&quot;&lt;/code&gt;&lt;span style=&quot;color: rgb(0, 0, 0); font-family: system-ui, -apple-system, &amp;quot;Segoe UI&amp;quot;, Roboto, Ubuntu, Cantarell, &amp;quot;Noto Sans&amp;quot;, sans-serif, BlinkMacSystemFont, &amp;quot;Segoe UI&amp;quot;, Helvetica, Arial, sans-serif, &amp;quot;Apple Color Emoji&amp;quot;, &amp;quot;Segoe UI Emoji&amp;quot;, &amp;quot;Segoe UI Symbol&amp;quot;;&quot;&gt;&amp;nbsp;name + the&amp;nbsp;&lt;/span&gt;&lt;code style=&quot;box-sizing: border-box; vertical-align: middle; background-color: rgb(218, 221, 225); border: 0.1rem solid rgba(0, 0, 0, 0.1); border-radius: 0.2rem; font-family: SFMono-Regular, Menlo, Monaco, Consolas, &amp;quot;Liberation Mono&amp;quot;, &amp;quot;Courier New&amp;quot;, monospace; padding: 1.7px 3.4px; color: rgb(0, 0, 0);&quot;&gt;&quot;increment&quot;&lt;/code&gt;&lt;span style=&quot;color: rgb(0, 0, 0); font-family: system-ui, -apple-system, &amp;quot;Segoe UI&amp;quot;, Roboto, Ubuntu, Cantarell, &amp;quot;Noto Sans&amp;quot;, sans-serif, BlinkMacSystemFont, &amp;quot;Segoe UI&amp;quot;, Helvetica, Arial, sans-serif, &amp;quot;Apple Color Emoji&amp;quot;, &amp;quot;Segoe UI Emoji&amp;quot;, &amp;quot;Segoe UI Symbol&amp;quot;;&quot;&gt;&amp;nbsp;reducer function generated an action type of&amp;nbsp;&lt;/span&gt;&lt;code style=&quot;box-sizing: border-box; vertical-align: middle; background-color: rgb(218, 221, 225); border: 0.1rem solid rgba(0, 0, 0, 0.1); border-radius: 0.2rem; font-family: SFMono-Regular, Menlo, Monaco, Consolas, &amp;quot;Liberation Mono&amp;quot;, &amp;quot;Courier New&amp;quot;, monospace; padding: 1.7px 3.4px; color: rgb(0, 0, 0);&quot;&gt;{type: &quot;counter/increment&quot;}&lt;/code&gt;&lt;span style=&quot;color: rgb(0, 0, 0); font-family: system-ui, -apple-system, &amp;quot;Segoe UI&amp;quot;, Roboto, Ubuntu, Cantarell, &amp;quot;Noto Sans&amp;quot;, sans-serif, BlinkMacSystemFont, &amp;quot;Segoe UI&amp;quot;, Helvetica, Arial, sans-serif, &amp;quot;Apple Color Emoji&amp;quot;, &amp;quot;Segoe UI Emoji&amp;quot;, &amp;quot;Segoe UI Symbol&amp;quot;;&quot;&gt;.&lt;/span&gt;&lt;/font&gt;&lt;/div&gt;" style="text;html=1;align=left;verticalAlign=top;whiteSpace=wrap;rounded=0;" vertex="1" parent="1">
          <mxGeometry x="1530" y="-550" width="270" height="230" as="geometry" />
        </mxCell>
        <mxCell id="aeGjRWzs8yw3ERXhmYGt-64" value="&lt;div style=&quot;color: rgb(123, 136, 161); background-color: rgb(30, 33, 39); font-family: Consolas, &amp;quot;Courier New&amp;quot;, monospace; font-size: 14px; line-height: 19px; white-space-collapse: preserve;&quot;&gt;&lt;div&gt;&lt;span style=&quot;color: #81a1c1;&quot;&gt;export&lt;/span&gt; &lt;span style=&quot;color: #81a1c1;&quot;&gt;class&lt;/span&gt; &lt;span style=&quot;color: #8fbcbb;&quot;&gt;LoginUseCase&lt;/span&gt; &lt;span style=&quot;color: #eceff4;&quot;&gt;{&lt;/span&gt;&lt;/div&gt;&lt;div&gt;&amp;nbsp; &lt;span style=&quot;color: #81a1c1;&quot;&gt;constructor&lt;/span&gt;&lt;span style=&quot;color: #eceff4;&quot;&gt;(&lt;/span&gt;&lt;span style=&quot;color: #81a1c1;&quot;&gt;private&lt;/span&gt; &lt;span style=&quot;color: #d8dee9;&quot;&gt;authRepository&lt;/span&gt;&lt;span style=&quot;color: #81a1c1;&quot;&gt;:&lt;/span&gt; &lt;span style=&quot;color: #8fbcbb;&quot;&gt;AuthRepository&lt;/span&gt;&lt;span style=&quot;color: #eceff4;&quot;&gt;)&lt;/span&gt; &lt;span style=&quot;color: #eceff4;&quot;&gt;{}&lt;/span&gt;&lt;/div&gt;&lt;br&gt;&lt;div&gt;&amp;nbsp; &lt;span style=&quot;color: #81a1c1;&quot;&gt;async&lt;/span&gt; &lt;span style=&quot;color: #88c0d0;&quot;&gt;execute&lt;/span&gt;&lt;span style=&quot;color: #eceff4;&quot;&gt;(&lt;/span&gt;&lt;span style=&quot;color: #d8dee9;&quot;&gt;payload&lt;/span&gt;&lt;span style=&quot;color: #81a1c1;&quot;&gt;:&lt;/span&gt; &lt;span style=&quot;color: #8fbcbb;&quot;&gt;LoginPayload&lt;/span&gt;&lt;span style=&quot;color: #eceff4;&quot;&gt;)&lt;/span&gt;&lt;span style=&quot;color: #81a1c1;&quot;&gt;:&lt;/span&gt; &lt;span style=&quot;color: #8fbcbb;&quot;&gt;ApiPromise&lt;/span&gt;&lt;span style=&quot;color: #eceff4;&quot;&gt;&amp;lt;&lt;/span&gt;&lt;span style=&quot;color: #8fbcbb;&quot;&gt;User&lt;/span&gt;&lt;span style=&quot;color: #eceff4;&quot;&gt;&amp;gt;&lt;/span&gt; &lt;span style=&quot;color: #eceff4;&quot;&gt;{&lt;/span&gt;&lt;/div&gt;&lt;div&gt;&amp;nbsp; &amp;nbsp; &lt;span style=&quot;color: #81a1c1;&quot;&gt;return&lt;/span&gt; &lt;span style=&quot;color: #81a1c1;&quot;&gt;await&lt;/span&gt; &lt;span style=&quot;color: #81a1c1;&quot;&gt;this&lt;/span&gt;&lt;span style=&quot;color: #eceff4;&quot;&gt;.&lt;/span&gt;&lt;span style=&quot;color: #d8dee9;&quot;&gt;authRepository&lt;/span&gt;&lt;span style=&quot;color: #eceff4;&quot;&gt;.&lt;/span&gt;&lt;span style=&quot;color: #88c0d0;&quot;&gt;login&lt;/span&gt;(&lt;span style=&quot;color: #d8dee9;&quot;&gt;payload&lt;/span&gt;)&lt;span style=&quot;color: #81a1c1;&quot;&gt;;&lt;/span&gt;&lt;/div&gt;&lt;div&gt;&amp;nbsp; &lt;span style=&quot;color: #eceff4;&quot;&gt;}&lt;/span&gt;&lt;/div&gt;&lt;div&gt;&lt;span style=&quot;color: #eceff4;&quot;&gt;}&lt;/span&gt;&lt;/div&gt;&lt;/div&gt;" style="text;html=1;align=left;verticalAlign=middle;resizable=0;points=[];autosize=1;strokeColor=none;fillColor=none;" vertex="1" parent="1">
          <mxGeometry x="849" y="-80" width="470" height="150" as="geometry" />
        </mxCell>
        <mxCell id="aeGjRWzs8yw3ERXhmYGt-65" value="&lt;div style=&quot;font-family: Consolas, &amp;quot;Courier New&amp;quot;, monospace; font-size: 14px; white-space-collapse: preserve;&quot;&gt;&lt;font style=&quot;color: light-dark(rgb(0, 0, 0), rgb(255, 255, 255));&quot;&gt;&lt;span style=&quot;&quot;&gt;thunk&lt;/span&gt;&lt;span style=&quot;&quot;&gt;:&lt;/span&gt; &lt;span style=&quot;&quot;&gt;{&lt;/span&gt;&lt;/font&gt;&lt;/div&gt;&lt;div style=&quot;font-family: Consolas, &amp;quot;Courier New&amp;quot;, monospace; font-size: 14px; white-space-collapse: preserve;&quot;&gt;&lt;font style=&quot;color: light-dark(rgb(0, 0, 0), rgb(255, 255, 255));&quot;&gt;&lt;span style=&quot;&quot;&gt;&lt;font&gt;  &lt;/font&gt;&lt;/span&gt;&lt;span style=&quot;&quot;&gt;extraArgument&lt;/span&gt;&lt;span style=&quot;&quot;&gt;:&lt;/span&gt;&lt;font&gt; &lt;/font&gt;&lt;span style=&quot;&quot;&gt;{&lt;/span&gt;&lt;/font&gt;&lt;/div&gt;&lt;div style=&quot;font-family: Consolas, &amp;quot;Courier New&amp;quot;, monospace; font-size: 14px; white-space-collapse: preserve;&quot;&gt;&lt;font style=&quot;color: light-dark(rgb(0, 0, 0), rgb(255, 255, 255));&quot;&gt;&lt;span style=&quot;&quot;&gt;&lt;font&gt;    &lt;/font&gt;&lt;/span&gt;&lt;span style=&quot;&quot;&gt;loginUseCase&lt;/span&gt;&lt;span style=&quot;&quot;&gt;,&lt;/span&gt;&lt;/font&gt;&lt;/div&gt;&lt;div style=&quot;font-family: Consolas, &amp;quot;Courier New&amp;quot;, monospace; font-size: 14px; white-space-collapse: preserve;&quot;&gt;&lt;font style=&quot;color: light-dark(rgb(0, 0, 0), rgb(255, 255, 255));&quot;&gt;&lt;span style=&quot;&quot;&gt;&lt;font&gt;    &lt;/font&gt;&lt;/span&gt;&lt;span style=&quot;&quot;&gt;registerUseCase&lt;/span&gt;&lt;span style=&quot;&quot;&gt;,&lt;/span&gt;&lt;/font&gt;&lt;/div&gt;&lt;div style=&quot;font-family: Consolas, &amp;quot;Courier New&amp;quot;, monospace; font-size: 14px; white-space-collapse: preserve;&quot;&gt;&lt;font style=&quot;color: light-dark(rgb(0, 0, 0), rgb(255, 255, 255));&quot;&gt;&amp;nbsp; &lt;span style=&quot;&quot;&gt;},&lt;br&gt;&lt;/span&gt;&lt;span style=&quot;&quot;&gt;},&lt;/span&gt;&lt;/font&gt;&lt;/div&gt;" style="text;html=1;align=left;verticalAlign=middle;resizable=0;points=[];autosize=1;strokeColor=none;fillColor=none;fontColor=light-dark(default, #ffffff);" vertex="1" parent="1">
          <mxGeometry x="570" y="-359" width="180" height="110" as="geometry" />
        </mxCell>
        <mxCell id="aeGjRWzs8yw3ERXhmYGt-66" value="new RegisterUseCase(&lt;br&gt;AuthApiRepository)" style="rounded=1;whiteSpace=wrap;html=1;" vertex="1" parent="1">
          <mxGeometry x="830" y="-249" width="150" height="60" as="geometry" />
        </mxCell>
        <mxCell id="aeGjRWzs8yw3ERXhmYGt-68" style="edgeStyle=orthogonalEdgeStyle;rounded=0;orthogonalLoop=1;jettySize=auto;html=1;exitX=0;exitY=0.5;exitDx=0;exitDy=0;entryX=1;entryY=0.484;entryDx=0;entryDy=0;entryPerimeter=0;" edge="1" parent="1" source="aeGjRWzs8yw3ERXhmYGt-66" target="aeGjRWzs8yw3ERXhmYGt-65">
          <mxGeometry relative="1" as="geometry" />
        </mxCell>
        <mxCell id="aeGjRWzs8yw3ERXhmYGt-69" value="&lt;div style=&quot;color: rgb(123, 136, 161); background-color: rgb(30, 33, 39); font-family: Consolas, &amp;quot;Courier New&amp;quot;, monospace; font-size: 14px; line-height: 19px; white-space-collapse: preserve;&quot;&gt;&lt;div&gt;&lt;span style=&quot;color: #81a1c1;&quot;&gt;export&lt;/span&gt; &lt;span style=&quot;color: #81a1c1;&quot;&gt;class&lt;/span&gt; &lt;span style=&quot;color: #8fbcbb;&quot;&gt;AuthApiRepository&lt;/span&gt; &lt;span style=&quot;color: #81a1c1;&quot;&gt;implements&lt;/span&gt; &lt;span style=&quot;color: #8fbcbb;font-weight: bold;&quot;&gt;AuthRepository&lt;/span&gt; &lt;span style=&quot;color: #eceff4;&quot;&gt;{&lt;/span&gt;&lt;/div&gt;&lt;div&gt;&amp;nbsp; &lt;span style=&quot;color: #81a1c1;&quot;&gt;async&lt;/span&gt; &lt;span style=&quot;color: #88c0d0;&quot;&gt;login&lt;/span&gt;&lt;span style=&quot;color: #eceff4;&quot;&gt;(&lt;/span&gt;&lt;span style=&quot;color: #d8dee9;&quot;&gt;payload&lt;/span&gt;&lt;span style=&quot;color: #81a1c1;&quot;&gt;:&lt;/span&gt; &lt;span style=&quot;color: #8fbcbb;&quot;&gt;LoginPayload&lt;/span&gt;&lt;span style=&quot;color: #eceff4;&quot;&gt;)&lt;/span&gt;&lt;span style=&quot;color: #81a1c1;&quot;&gt;:&lt;/span&gt; &lt;span style=&quot;color: #8fbcbb;&quot;&gt;ApiPromise&lt;/span&gt;&lt;span style=&quot;color: #eceff4;&quot;&gt;&amp;lt;&lt;/span&gt;&lt;span style=&quot;color: #8fbcbb;&quot;&gt;User&lt;/span&gt;&lt;span style=&quot;color: #eceff4;&quot;&gt;&amp;gt;&lt;/span&gt; &lt;span style=&quot;color: #eceff4;&quot;&gt;{&lt;/span&gt;&lt;/div&gt;&lt;div&gt;&amp;nbsp; &amp;nbsp; &lt;span style=&quot;color: #81a1c1;&quot;&gt;try&lt;/span&gt; &lt;span style=&quot;color: #eceff4;&quot;&gt;{&lt;/span&gt;&lt;/div&gt;&lt;div&gt;&amp;nbsp; &amp;nbsp; &amp;nbsp; &lt;span style=&quot;color: #81a1c1;&quot;&gt;const&lt;/span&gt; &lt;span style=&quot;color: #d8dee9;&quot;&gt;response&lt;/span&gt; &lt;span style=&quot;color: #81a1c1;&quot;&gt;=&lt;/span&gt; &lt;span style=&quot;color: #81a1c1;&quot;&gt;await&lt;/span&gt; &lt;span style=&quot;color: #d8dee9;&quot;&gt;api&lt;/span&gt;&lt;span style=&quot;color: #eceff4;&quot;&gt;.&lt;/span&gt;&lt;span style=&quot;color: #88c0d0;&quot;&gt;post&lt;/span&gt;(&lt;span style=&quot;color: #d8dee9;&quot;&gt;API_ROUTES&lt;/span&gt;&lt;span style=&quot;color: #eceff4;&quot;&gt;.&lt;/span&gt;&lt;span style=&quot;color: #d8dee9;&quot;&gt;AUTH&lt;/span&gt;&lt;span style=&quot;color: #eceff4;&quot;&gt;.&lt;/span&gt;&lt;span style=&quot;color: #d8dee9;&quot;&gt;LOGIN&lt;/span&gt;&lt;span style=&quot;color: #eceff4;&quot;&gt;,&lt;/span&gt; &lt;span style=&quot;color: #eceff4;&quot;&gt;{&lt;/span&gt;&lt;/div&gt;&lt;div&gt;&amp;nbsp; &amp;nbsp; &amp;nbsp; &amp;nbsp; &lt;span style=&quot;color: #81a1c1;&quot;&gt;...&lt;/span&gt;&lt;span style=&quot;color: #d8dee9;&quot;&gt;payload&lt;/span&gt;&lt;span style=&quot;color: #eceff4;&quot;&gt;,&lt;/span&gt;&lt;/div&gt;&lt;div&gt;&amp;nbsp; &amp;nbsp; &amp;nbsp; &lt;span style=&quot;color: #eceff4;&quot;&gt;}&lt;/span&gt;)&lt;span style=&quot;color: #81a1c1;&quot;&gt;;&lt;/span&gt;&lt;/div&gt;&lt;div&gt;&amp;nbsp; &amp;nbsp; &amp;nbsp; &lt;span style=&quot;color: #81a1c1;&quot;&gt;return&lt;/span&gt; &lt;span style=&quot;color: #88c0d0;&quot;&gt;handleApiSuccess&lt;/span&gt;(&lt;span style=&quot;color: #eceff4;&quot;&gt;{&lt;/span&gt;&lt;/div&gt;&lt;div&gt;&amp;nbsp; &amp;nbsp; &amp;nbsp; &amp;nbsp; &lt;span style=&quot;color: #d8dee9;&quot;&gt;response&lt;/span&gt;&lt;span style=&quot;color: #eceff4;&quot;&gt;:&lt;/span&gt; &lt;span style=&quot;color: #eceff4;&quot;&gt;{&lt;/span&gt;&lt;/div&gt;&lt;div&gt;&amp;nbsp; &amp;nbsp; &amp;nbsp; &amp;nbsp; &amp;nbsp; &lt;span style=&quot;color: #81a1c1;&quot;&gt;...&lt;/span&gt;&lt;span style=&quot;color: #d8dee9;&quot;&gt;response&lt;/span&gt;&lt;span style=&quot;color: #eceff4;&quot;&gt;,&lt;/span&gt;&lt;/div&gt;&lt;div&gt;&amp;nbsp; &amp;nbsp; &amp;nbsp; &amp;nbsp; &amp;nbsp; &lt;span style=&quot;color: #d8dee9;&quot;&gt;data&lt;/span&gt;&lt;span style=&quot;color: #eceff4;&quot;&gt;:&lt;/span&gt; &lt;span style=&quot;color: #eceff4;&quot;&gt;{&lt;/span&gt; &lt;span style=&quot;color: #81a1c1;&quot;&gt;...&lt;/span&gt;&lt;span style=&quot;color: #88c0d0;&quot;&gt;mapUserResponse&lt;/span&gt;(&lt;span style=&quot;color: #d8dee9;&quot;&gt;response&lt;/span&gt;&lt;span style=&quot;color: #eceff4;&quot;&gt;.&lt;/span&gt;&lt;span style=&quot;color: #d8dee9;&quot;&gt;data&lt;/span&gt;) &lt;span style=&quot;color: #eceff4;&quot;&gt;},&lt;/span&gt;&lt;/div&gt;&lt;div&gt;&amp;nbsp; &amp;nbsp; &amp;nbsp; &amp;nbsp; &lt;span style=&quot;color: #eceff4;&quot;&gt;},&lt;/span&gt;&lt;/div&gt;&lt;div&gt;&amp;nbsp; &amp;nbsp; &amp;nbsp; &lt;span style=&quot;color: #eceff4;&quot;&gt;}&lt;/span&gt;)&lt;span style=&quot;color: #81a1c1;&quot;&gt;;&lt;/span&gt;&lt;/div&gt;&lt;div&gt;&amp;nbsp; &amp;nbsp; &lt;span style=&quot;color: #eceff4;&quot;&gt;}&lt;/span&gt; &lt;span style=&quot;color: #81a1c1;&quot;&gt;catch&lt;/span&gt; &lt;span style=&quot;color: #eceff4;&quot;&gt;(&lt;/span&gt;&lt;span style=&quot;color: #d8dee9;&quot;&gt;error&lt;/span&gt;&lt;span style=&quot;color: #81a1c1;&quot;&gt;:&lt;/span&gt; &lt;span style=&quot;color: #8fbcbb;&quot;&gt;unknown&lt;/span&gt;&lt;span style=&quot;color: #eceff4;&quot;&gt;)&lt;/span&gt; &lt;span style=&quot;color: #eceff4;&quot;&gt;{&lt;/span&gt;&lt;/div&gt;&lt;div&gt;&amp;nbsp; &amp;nbsp; &amp;nbsp; &lt;span style=&quot;color: #81a1c1;&quot;&gt;return&lt;/span&gt; &lt;span style=&quot;color: #88c0d0;&quot;&gt;handleApiError&lt;/span&gt;(&lt;span style=&quot;color: #d8dee9;&quot;&gt;error&lt;/span&gt;)&lt;span style=&quot;color: #81a1c1;&quot;&gt;;&lt;/span&gt;&lt;/div&gt;&lt;div&gt;&amp;nbsp; &amp;nbsp; &lt;span style=&quot;color: #eceff4;&quot;&gt;}&lt;/span&gt;&lt;/div&gt;&lt;div&gt;&amp;nbsp; &lt;span style=&quot;color: #eceff4;&quot;&gt;}&lt;/span&gt;&lt;/div&gt;&lt;/div&gt;" style="text;html=1;align=left;verticalAlign=middle;resizable=0;points=[];autosize=1;strokeColor=none;fillColor=none;" vertex="1" parent="1">
          <mxGeometry x="1290" y="110" width="500" height="320" as="geometry" />
        </mxCell>
        <mxCell id="aeGjRWzs8yw3ERXhmYGt-70" value="Store" style="rounded=1;whiteSpace=wrap;html=1;fillColor=#a20025;fontColor=#ffffff;strokeColor=#6F0000;" vertex="1" parent="1">
          <mxGeometry x="800" y="120" width="120" height="60" as="geometry" />
        </mxCell>
        <mxCell id="aeGjRWzs8yw3ERXhmYGt-71" value="" style="endArrow=none;html=1;rounded=0;" edge="1" parent="1" source="aeGjRWzs8yw3ERXhmYGt-83">
          <mxGeometry width="50" height="50" relative="1" as="geometry">
            <mxPoint x="859.4099999999999" y="720" as="sourcePoint" />
            <mxPoint x="859.4099999999999" y="210" as="targetPoint" />
          </mxGeometry>
        </mxCell>
        <mxCell id="aeGjRWzs8yw3ERXhmYGt-74" value="" style="endArrow=classic;html=1;rounded=0;exitX=0.5;exitY=1;exitDx=0;exitDy=0;" edge="1" parent="1" source="aeGjRWzs8yw3ERXhmYGt-83">
          <mxGeometry width="50" height="50" relative="1" as="geometry">
            <mxPoint x="680" y="640" as="sourcePoint" />
            <mxPoint x="1040" y="640" as="targetPoint" />
          </mxGeometry>
        </mxCell>
        <mxCell id="aeGjRWzs8yw3ERXhmYGt-91" value="&lt;span style=&quot;font-family: Consolas, &amp;quot;Courier New&amp;quot;, monospace; font-size: 14px; white-space-collapse: preserve;&quot;&gt;type: &#39;&lt;/span&gt;&lt;span style=&quot;font-family: Consolas, &amp;quot;Courier New&amp;quot;, monospace; font-size: 14px; white-space-collapse: preserve;&quot;&gt;auth/login&lt;/span&gt;&lt;span style=&quot;font-family: Consolas, &amp;quot;Courier New&amp;quot;, monospace; font-size: 14px; white-space-collapse: preserve;&quot;&gt;&#39;&lt;/span&gt;" style="edgeLabel;html=1;align=center;verticalAlign=middle;resizable=0;points=[];fontColor=light-dark(default, #ffffff);" vertex="1" connectable="0" parent="aeGjRWzs8yw3ERXhmYGt-74">
          <mxGeometry x="-0.0278" y="-2" relative="1" as="geometry">
            <mxPoint as="offset" />
          </mxGeometry>
        </mxCell>
        <mxCell id="aeGjRWzs8yw3ERXhmYGt-82" value="" style="endArrow=none;html=1;rounded=0;" edge="1" parent="1" target="aeGjRWzs8yw3ERXhmYGt-81">
          <mxGeometry width="50" height="50" relative="1" as="geometry">
            <mxPoint x="679.41" y="720" as="sourcePoint" />
            <mxPoint x="679.41" y="210" as="targetPoint" />
          </mxGeometry>
        </mxCell>
        <mxCell id="aeGjRWzs8yw3ERXhmYGt-81" value="login(...)" style="rounded=0;whiteSpace=wrap;html=1;horizontal=0;" vertex="1" parent="1">
          <mxGeometry x="670" y="460" width="20" height="90" as="geometry" />
        </mxCell>
        <mxCell id="aeGjRWzs8yw3ERXhmYGt-84" value="" style="endArrow=none;html=1;rounded=0;" edge="1" parent="1" target="aeGjRWzs8yw3ERXhmYGt-83">
          <mxGeometry width="50" height="50" relative="1" as="geometry">
            <mxPoint x="859.4099999999999" y="720" as="sourcePoint" />
            <mxPoint x="859.4099999999999" y="210" as="targetPoint" />
          </mxGeometry>
        </mxCell>
        <mxCell id="aeGjRWzs8yw3ERXhmYGt-83" value="dispatch(...)" style="rounded=0;whiteSpace=wrap;html=1;horizontal=0;" vertex="1" parent="1">
          <mxGeometry x="850" y="550" width="20" height="90" as="geometry" />
        </mxCell>
        <mxCell id="aeGjRWzs8yw3ERXhmYGt-88" value="execute(...)" style="rounded=0;whiteSpace=wrap;html=1;horizontal=0;" vertex="1" parent="1">
          <mxGeometry x="1030" y="640" width="20" height="100" as="geometry" />
        </mxCell>
        <mxCell id="aeGjRWzs8yw3ERXhmYGt-93" value="" style="endArrow=none;html=1;rounded=0;" edge="1" parent="1" target="aeGjRWzs8yw3ERXhmYGt-89">
          <mxGeometry width="50" height="50" relative="1" as="geometry">
            <mxPoint x="1219" y="1020" as="sourcePoint" />
            <mxPoint x="1219.4099999999999" y="210" as="targetPoint" />
          </mxGeometry>
        </mxCell>
        <mxCell id="aeGjRWzs8yw3ERXhmYGt-97" style="edgeStyle=orthogonalEdgeStyle;rounded=0;orthogonalLoop=1;jettySize=auto;html=1;exitX=0.5;exitY=1;exitDx=0;exitDy=0;entryX=0;entryY=0.3;entryDx=0;entryDy=0;" edge="1" parent="1" source="aeGjRWzs8yw3ERXhmYGt-89" target="aeGjRWzs8yw3ERXhmYGt-95">
          <mxGeometry relative="1" as="geometry">
            <Array as="points">
              <mxPoint x="1220" y="833" />
            </Array>
          </mxGeometry>
        </mxCell>
        <mxCell id="aeGjRWzs8yw3ERXhmYGt-89" value="login(...)" style="rounded=0;whiteSpace=wrap;html=1;horizontal=0;" vertex="1" parent="1">
          <mxGeometry x="1210" y="740" width="20" height="90" as="geometry" />
        </mxCell>
        <mxCell id="aeGjRWzs8yw3ERXhmYGt-95" value="" style="shape=datastore;whiteSpace=wrap;html=1;" vertex="1" parent="1">
          <mxGeometry x="1420" y="815" width="40" height="60" as="geometry" />
        </mxCell>
      </root>
    </mxGraphModel>
  </diagram>
</mxfile>
